<svg version="1.2" xmlns="http://www.w3.org/2000/svg" viewBox="0 0 200 200">
	<title>Nuevo proyecto</title>
	<defs>
		<radialGradient id="g1" cx="100" cy="100.1" r="100" gradientUnits="userSpaceOnUse">
			<stop offset=".7" stop-color="#345065"/>
			<stop offset="1" stop-color="#233645"/>
		</radialGradient>
	</defs>
	<style>
		.s0 { fill: url(#g1) } 
	</style>
	<path id="Forma 1" class="s0" d="m95.4 1.3c2.8-1.4 6.4-1.4 9.2 0l90.8 45.9c2.8 1.5 4.6 4.1 4.6 7v91.8c0 2.9-1.8 5.6-4.6 7l-90.8 45.9c-2.8 1.5-6.4 1.5-9.2 0l-90.8-45.9c-2.8-1.4-4.6-4.1-4.6-7v-91.8c0-2.9 1.8-5.5 4.6-7z" />
	<path id="P" fill="#abcdcf" aria-label="P"  d="m45.24 137.89q0 1.28-1.62 1.28q-1.04 0-1.99-0.32q-0.94-0.36-1.72-0.78q-1.62-0.78-2.88-2.3q-1.2-1.51-2.09-3.49q-0.84-1.97-1.47-4.27q-0.57-2.34-0.94-4.73q-0.37-2.39-0.57-4.74q-0.21-2.34-0.27-4.36q-1.51-0.51-3.08-1.15q-1.52-0.64-2.78-1.43q-1.2-0.82-1.98-1.74q-0.79-0.97-0.79-2.02q0-0.83 0.42-1.47q0.47-0.69 1.52-0.69q0.89 0 1.67 0.36q0.79 0.33 1.57 0.88q0.79 0.55 1.62 1.28q0.84 0.69 1.78 1.43q0-4.69 0.37-9.93q0.36-5.28 1.31-10.52q0.94-5.28 2.51-10.29q1.62-5.01 4.08-9.24l0.94 0.28q-1.78 7.95-2.62 15.94q-0.78 7.95-0.78 15.95q0 2.94 0.16 5.83q0.2 2.85 0.57 5.7q1.57 0.55 3.51 0.87q1.93 0.33 4.29 0.33q3.97 0 7.37-1.06q3.46-1.06 6.28-2.9q2.88-1.88 5.07-4.41q2.2-2.52 3.72-5.42q1.52-2.94 2.3-6.07q0.79-3.17 0.79-6.34q0-3.12-0.79-6.34q-0.78-3.26-2.35-6.29q-1.52-3.08-3.77-5.75q-2.2-2.66-5.07-4.64q-2.88-2.02-6.39-3.17q-3.45-1.19-7.48-1.19q-3.29 0-6.8 1.05q-3.5 1.06-6.38 2.99q-2.83 1.89-4.71 4.55q-1.83 2.67-1.83 5.84q0 1.24 0.31 2.25q0.37 0.96 0.74 1.79q0.41 0.83 0.73 1.56q0.36 0.69 0.36 1.43q0 1.33-1.04 2.25q-1 0.87-2.46 0.87q-1.36 0-2.15-0.64q-0.78-0.65-1.25-1.61q-0.42-0.97-0.58-2.02q-0.1-1.11-0.1-1.93q0-4.05 2.14-7.31q2.2-3.31 5.71-5.88q2.19-1.65 4.39-2.89q2.25-1.29 4.6-2.12q2.36-0.87 4.92-1.28q2.62-0.46 5.55-0.46q6.8 0 12.55 2.06q5.76 2.03 9.89 5.7q4.19 3.63 6.49 8.69q2.35 5 2.35 11.02q0 6.21-2.51 11.63q-2.46 5.37-6.91 9.42q-4.39 4-10.46 6.29q-6.07 2.3-13.23 2.3q-1.84 0-3.72-0.18q-1.88-0.19-3.71-0.46q1.72 10.38 6.27 20.49q0.16 0.37 0.27 0.78q0.15 0.37 0.15 0.74z" />
	<path id="S" fill="#00def2" aria-label="S"  d="m179.29 72.36q0 3.71-2.19 6.92q-2.13 3.21-5.59 5.56q-3.41 2.35-7.62 3.7q-4.2 1.31-8.31 1.22h-0.85v-0.81q3.52-0.63 6.61-2.17q3.14-1.58 5.43-3.84q2.34-2.26 3.68-5.07q1.38-2.8 1.38-5.87q0-2.04-0.58-3.85q-0.59-1.81-1.82-3.12q-1.22-1.31-3.14-2.08q-1.86-0.76-4.47-0.76q-3.73 0-7.57 0.94q-3.83 0.95-7.4 2.67q-3.57 1.72-6.71 4.07q-3.09 2.35-5.44 5.16q-2.29 2.8-3.62 5.96q-1.33 3.17-1.33 6.47q0 3.53 1.17 6.1q1.23 2.53 3.25 4.48q2.08 1.9 4.8 3.25q2.71 1.36 5.8 2.49q3.09 1.08 6.29 2.03q3.25 0.95 6.34 2.04q3.09 1.08 5.8 2.44q2.72 1.31 4.74 3.17q2.08 1.8 3.25 4.34q1.23 2.48 1.23 5.87q0 3.71-1.81 6.6q-1.76 2.9-4.69 4.89q-2.93 1.94-6.71 2.98q-3.79 1-7.78 1q-4.31 0-7.99-1.23q-3.68-1.26-6.61-3.34q-2.93-2.13-5.11-4.84q-2.18-2.76-3.51-5.7l0.79-0.36q1.6 2.4 3.68 4.75q2.08 2.31 4.69 4.16q2.61 1.81 5.75 2.94q3.2 1.13 6.92 1.13q3.04 0 5.65-0.72q2.61-0.73 4.53-2.08q1.92-1.36 2.98-3.35q1.12-1.99 1.12-4.52q0-3.71-1.86-6.1q-1.87-2.4-4.9-4.07q-3.04-1.68-6.93-2.85q-3.89-1.18-7.99-2.35q-4.05-1.22-7.94-2.72q-3.88-1.53-6.92-3.84q-3.04-2.3-4.9-5.7q-1.87-3.43-1.87-8.4q0-4.53 1.66-8.5q1.65-4.03 4.52-7.37q2.93-3.35 6.87-5.97q3.95-2.67 8.47-4.52q4.59-1.86 9.54-2.81q4.95-0.99 9.96-0.99q3.57 0 6.71 0.72q3.2 0.73 5.49 2.26q2.34 1.5 3.67 3.89q1.39 2.4 1.39 5.7z" />
</svg>